<?xml version="1.0" encoding="UTF-8" standalone="no"?>
<!-- Created with Inkscape (http://www.inkscape.org/) -->

<svg
   width="177mm"
   height="181mm"
   viewBox="0 0 177 181"
   version="1.1"
   id="svg5"
   inkscape:version="1.1.1 (3bf5ae0d25, 2021-09-20)"
   sodipodi:docname="white-koi-kanji.svg"
   xmlns:inkscape="http://www.inkscape.org/namespaces/inkscape"
   xmlns:sodipodi="http://sodipodi.sourceforge.net/DTD/sodipodi-0.dtd"
   xmlns="http://www.w3.org/2000/svg"
   xmlns:svg="http://www.w3.org/2000/svg">
  <sodipodi:namedview
     id="namedview7"
     pagecolor="#505050"
     bordercolor="#eeeeee"
     borderopacity="1"
     inkscape:pageshadow="0"
     inkscape:pageopacity="0"
     inkscape:pagecheckerboard="0"
     inkscape:document-units="mm"
     showgrid="false"
     inkscape:zoom="0.49887767"
     inkscape:cx="395.88864"
     inkscape:cy="496.11361"
     inkscape:window-width="1287"
     inkscape:window-height="745"
     inkscape:window-x="-8"
     inkscape:window-y="-8"
     inkscape:window-maximized="1"
     inkscape:current-layer="layer1" />
  <defs
     id="defs2" />
  <g
     inkscape:label="Layer 1"
     inkscape:groupmode="layer"
     id="layer1">
    <g
       transform="matrix(0.03527778,0,0,-0.03527778,-1.9182833,188.14571)"
       fill="#000000"
       stroke="none"
       id="g836"
       style="fill:#ffffff">
      <path
         d="M 3775,5169 C 3509,4998 1850,4665 732,4559 602,4546 600,4546 600,4522 v -25 l 318,9 c 174,4 337,8 361,8 l 45,1 29,-75 c 15,-41 50,-160 77,-263 55,-207 70,-248 108,-277 29,-23 113,-27 151,-7 82,42 97,172 34,305 -35,74 -160,203 -258,267 l -76,50 88,6 c 615,45 755,52 764,38 14,-21 85,-250 114,-369 41,-165 53,-196 91,-230 64,-56 165,-36 204,41 22,41 28,119 15,180 -22,105 -157,280 -282,366 l -55,38 113,12 c 522,56 857,115 1227,215 l 154,41 76,-18 c 85,-20 188,-23 220,-6 24,13 36,43 27,70 -7,23 -310,291 -327,290 -7,0 -26,-9 -43,-20 z"
         id="path824"
         style="fill:#ffffff" />
      <path
         d="m 3515,4683 c -29,-229 -88,-412 -222,-694 -49,-105 -58,-118 -85,-123 -17,-3 -568,-6 -1224,-6 H 790 v 59 c 0,33 -3,66 -6,75 -11,28 -32,17 -44,-21 C 718,3907 640,3764 584,3688 555,3648 469,3554 395,3478 259,3341 230,3299 230,3238 c 0,-41 33,-109 62,-127 55,-34 146,-32 224,5 87,41 177,179 218,330 14,52 45,245 46,282 0,9 352,12 1725,12 1004,0 1725,-4 1725,-9 0,-14 -38,-199 -59,-286 -19,-79 -16,-105 13,-105 15,0 122,82 216,164 l 75,66 h 120 c 139,1 188,10 221,41 31,29 32,79 2,113 -40,45 -312,265 -351,285 -21,10 -47,16 -59,13 -12,-3 -57,-39 -101,-81 l -79,-76 -445,-3 c -244,-1 -448,0 -453,3 -9,6 190,250 326,400 l 73,81 70,12 c 90,15 117,28 132,63 26,64 10,76 -363,284 l -47,26 z"
         id="path826"
         style="fill:#ffffff" />
      <path
         d="m 2274,3619 c -16,-18 -14,-22 40,-79 45,-49 75,-100 149,-248 102,-208 123,-232 201,-232 92,0 151,63 148,158 -4,163 -177,313 -463,402 -56,17 -59,17 -75,-1 z"
         id="path828"
         style="fill:#ffffff" />
      <path
         d="m 1580,3463 c 0,-5 7,-32 14,-61 10,-38 17,-143 21,-350 3,-164 8,-317 11,-342 17,-131 80,-187 247,-215 20,-3 37,-9 37,-14 0,-20 -42,-128 -75,-189 -93,-177 -429,-572 -746,-876 C 868,1203 540,934 382,834 c -2,-1 1,-11 7,-22 11,-20 11,-20 73,4 400,163 912,535 1313,957 l 112,117 h 59 59 l 39,-76 c 81,-157 239,-375 374,-516 l 45,-47 -24,-20 C 2386,1186 2088,989 1980,928 1617,721 1222,566 805,467 708,443 689,431 708,403 c 18,-27 445,30 687,92 391,101 799,287 1164,531 l 94,63 36,-28 c 77,-60 252,-171 376,-239 314,-173 702,-307 1115,-387 74,-14 143,-27 152,-29 13,-3 33,18 71,78 66,101 137,164 264,237 57,32 99,63 101,73 4,17 -4,17 -110,9 -570,-42 -1174,69 -1638,301 -58,29 -126,66 -152,82 l -47,29 82,65 c 45,36 176,159 292,273 l 209,208 99,25 c 195,49 237,73 237,136 0,47 -8,54 -160,149 -131,82 -168,99 -207,99 -38,-1 -61,-15 -142,-88 l -70,-62 -581,-3 c -319,-1 -579,1 -578,4 2,3 23,33 48,66 l 45,60 67,5 c 53,3 72,8 93,28 29,27 32,59 8,89 -10,11 -89,66 -176,120 l -159,100 604,4 c 528,3 612,6 677,21 186,44 287,114 307,214 6,28 -1,38 -64,105 -66,69 -71,78 -86,148 -9,41 -22,110 -29,154 -10,67 -15,80 -31,80 -15,0 -23,-18 -42,-95 -71,-280 -130,-379 -245,-410 -78,-21 -255,-30 -604,-31 -406,0 -447,4 -504,56 l -36,33 -3,214 -3,214 40,12 c 51,16 111,71 111,104 0,49 -18,58 -211,104 -101,24 -194,46 -206,49 -13,3 -23,2 -23,-2 z M 3088,1848 c -47,-60 -286,-305 -390,-400 -104,-95 -76,-101 -259,60 -107,94 -265,259 -339,355 l -21,27 h 521 522 z"
         id="path830"
         style="fill:#ffffff" />
      <path
         d="m 1056,3193 c -11,-44 -90,-206 -127,-260 -50,-72 -123,-147 -231,-234 -118,-96 -140,-126 -145,-193 -13,-178 196,-211 347,-55 110,113 151,224 185,496 35,288 35,267 4,271 -22,3 -28,-2 -33,-25 z"
         id="path832"
         style="fill:#ffffff" />
      <path
         d="m 3804,3163 c -10,-15 0,-30 62,-96 101,-108 203,-263 290,-443 86,-177 110,-204 183,-204 108,0 194,87 193,196 -2,188 -231,392 -594,528 -111,41 -119,42 -134,19 z"
         id="path834"
         style="fill:#ffffff" />
    </g>
  </g>
</svg>
